<?xml version="1.0" encoding="UTF-8" standalone="no"?>
<!-- Created with Inkscape (http://www.inkscape.org/) -->

<svg
   xmlns:dc="http://purl.org/dc/elements/1.1/"
   xmlns:cc="http://creativecommons.org/ns#"
   xmlns:rdf="http://www.w3.org/1999/02/22-rdf-syntax-ns#"
   xmlns:svg="http://www.w3.org/2000/svg"
   xmlns="http://www.w3.org/2000/svg"
   xmlns:sodipodi="http://sodipodi.sourceforge.net/DTD/sodipodi-0.dtd"
   xmlns:inkscape="http://www.inkscape.org/namespaces/inkscape"
   version="1.1"
   id="svg7364"
   width="385.61407"
   height="691.34076"
   viewBox="0 0 385.61407 691.34076"
   sodipodi:docname="illinoispath.svg"
   inkscape:version="0.92.4 (5da689c313, 2019-01-14)">
  <metadata
     id="metadata7370">
    <rdf:RDF>
      <cc:Work
         rdf:about="">
        <dc:format>image/svg+xml</dc:format>
        <dc:type
           rdf:resource="http://purl.org/dc/dcmitype/StillImage" />
        <dc:title></dc:title>
      </cc:Work>
    </rdf:RDF>
  </metadata>
  <defs
     id="defs7368" />
  <sodipodi:namedview
     pagecolor="#ffffff"
     bordercolor="#666666"
     borderopacity="1"
     objecttolerance="10"
     gridtolerance="10"
     guidetolerance="10"
     inkscape:pageopacity="0"
     inkscape:pageshadow="2"
     inkscape:window-width="1920"
     inkscape:window-height="1137"
     id="namedview7366"
     showgrid="false"
     inkscape:zoom="0.34104046"
     inkscape:cx="-290.23338"
     inkscape:cy="348.27294"
     inkscape:window-x="1912"
     inkscape:window-y="-8"
     inkscape:window-maximized="1"
     inkscape:current-layer="svg7364" />
  <path
     style="fill:#0d5aa2;fill-opacity:1"
     d="m 222.71519,690.62184 c -0.53483,-0.64443 -1.1517,-2.51047 -1.37083,-4.14676 -0.21913,-1.6363 -0.88559,-2.97508 -1.48102,-2.97508 -1.41994,0 -2.74927,-1.36998 -2.74927,-2.83333 0,-0.64167 -1.2375,-1.30906 -2.75,-1.48309 -3.26199,-0.37534 -3.90781,2.28038 -0.75505,3.10485 1.09723,0.28693 2.28376,1.27431 2.63675,2.19417 0.78594,2.04814 -2.32857,5.60398 -3.41786,3.90218 -0.39261,-0.61337 -1.61384,-1.41351 -2.71384,-1.7781 -1.1,-0.36458 -3.1023,-1.58258 -4.44955,-2.70665 -1.94558,-1.6233 -2.22869,-2.38903 -1.37605,-3.72191 0.82193,-1.28486 0.61246,-2.33089 -0.89382,-4.46361 -1.08202,-1.53203 -1.72322,-3.42161 -1.42488,-4.19908 0.3587,-0.93475 0.0498,-1.22451 -0.91208,-0.85542 -1.68436,0.64635 -4.93953,-6.04859 -3.82092,-7.85854 0.44468,-0.71952 0.22489,-0.82531 -0.62429,-0.30049 -1.01481,0.62719 -1.17211,0.11751 -0.69695,-2.25827 0.43474,-2.17371 0.14389,-3.45814 -0.9976,-4.40549 -0.88619,-0.73547 -1.76709,-1.22472 -1.95755,-1.08722 -1.31086,0.94631 -2.34631,-0.1691 -2.34631,-2.52749 0,-4.12003 2.58822,-7.22251 6.02532,-7.22251 2.1064,0 2.76098,-0.39332 2.36629,-1.42186 -0.30009,-0.78202 -0.0597,-2.32971 0.53409,-3.43931 0.64506,-1.2053 0.70703,-2.24778 0.15394,-2.58961 -0.50917,-0.31468 -1.22114,-1.91699 -1.58216,-3.56069 C 197.75054,632.34484 197.04849,631 196.55146,631 c -1.50626,0 -5.93739,-9.72125 -5.93739,-13.02577 0,-1.70075 0.41891,-2.83337 0.9309,-2.51694 0.512,0.31644 1.21809,0.11065 1.5691,-0.45729 0.35101,-0.56794 1.06479,-0.76898 1.58617,-0.44674 0.52139,0.32223 -0.1847,-1.08322 -1.5691,-3.12324 -1.46327,-2.15625 -2.51707,-5.12636 -2.51707,-7.09432 0,-2.69075 -0.51286,-3.58019 -2.5,-4.3357 -1.375,-0.52277 -2.5,-1.43819 -2.5,-2.03427 0,-0.59607 -0.43023,-0.81787 -0.95607,-0.49288 -0.52584,0.32498 -1.67145,-0.50094 -2.54582,-1.83538 -1.13519,-1.73253 -2.19366,-2.26834 -3.70186,-1.87394 -1.7958,0.46961 -2.02324,0.21249 -1.5187,-1.71687 0.32637,-1.24807 0.1571,-2.78164 -0.37618,-3.40794 -0.53327,-0.62629 -1.66261,-2.03872 -2.50963,-3.13872 -0.84703,-1.1 -1.1953,-1.325 -0.77394,-0.5 0.65787,1.28805 0.5286,1.30737 -0.91483,0.13669 -0.92452,-0.74982 -1.43435,-1.76232 -1.13294,-2.25 0.3014,-0.48768 -0.802,-0.88669 -2.452,-0.88669 -1.65,0 -3.32108,-0.51953 -3.71352,-1.15451 -0.46911,-0.75903 -0.23241,-0.9049 0.69098,-0.42584 0.77248,0.40077 0.531,0.0203 -0.53662,-0.84549 -1.06762,-0.86579 -1.51762,-1.57693 -1,-1.58032 0.51762,-0.003 -0.34781,-0.67839 -1.92318,-1.5 -3.88201,-2.02461 -5.72252,-1.87781 -6.34594,0.50616 -0.3188,1.21907 -1.35601,1.99402 -2.65638,1.98469 -2.69537,-0.0194 -4.03414,-0.91508 -5.48367,-3.66895 C 146.1944,572.33417 146.32093,571 148.17309,571 c 0.85746,0 1.2809,-0.45 0.94098,-1 -0.33992,-0.55 0.0835,-1 0.94098,-1 0.85746,0 1.55902,-0.45 1.55902,-1 0,-1.01353 -1.97056,-1.39244 -5.36831,-1.03225 -1.03102,0.10929 -3.38385,-1.4087 -5.25,-3.38717 -1.85993,-1.97187 -3.38169,-3.28073 -3.38169,-2.90859 0,0.37215 -1.11113,-0.36722 -2.46918,-1.64304 -1.35805,-1.27582 -2.25412,-2.66764 -1.99127,-3.09294 0.26285,-0.4253 -0.98219,-1.09396 -2.76675,-1.48591 -3.61132,-0.79318 -7.69308,-3.40818 -7.74138,-4.95955 -0.0173,-0.5552 -0.94888,-1.58242 -2.07022,-2.28271 -1.12134,-0.70029 -1.76765,-1.71199 -1.43625,-2.24822 0.33141,-0.53623 -0.10113,-1.67865 -0.96119,-2.53872 -0.86007,-0.86007 -1.56376,-1.29078 -1.56376,-0.95714 0,0.33363 -0.94233,0.10229 -2.09406,-0.5141 -3.24196,-1.73505 -5.60074,-8.54493 -5.35139,-15.44966 0.34574,-9.57388 0.36285,-9.66909 1.59997,-8.90451 0.74081,0.45785 0.88195,0.27252 0.39388,-0.51719 -0.45728,-0.73989 0.51728,-2.82091 2.44362,-5.21799 2.96349,-3.68768 3.73477,-5.55216 5.44025,-13.15121 0.38591,-1.7195 1.05831,-2.52394 1.75156,-2.09549 0.68748,0.42489 0.84706,0.24539 0.41022,-0.46144 -0.39323,-0.63626 0.6339,-3.06829 2.28253,-5.4045 1.7706,-2.50908 3.06473,-5.68024 3.16177,-7.74767 0.2344,-4.99379 0.0658,-6.18238 -0.8011,-5.64663 -0.41951,0.25927 -0.78881,-1.06417 -0.82066,-2.94098 -0.0384,-2.26228 0.4071,-3.41239 1.32177,-3.41239 0.75882,0 1.13425,-0.39711 0.83428,-0.88246 -0.75515,-1.22186 3.36737,-6.27265 4.53221,-5.55274 0.51959,0.32112 0.88026,0.21291 0.80151,-0.24047 -0.31592,-1.8186 0.13645,-3.4159 0.84364,-2.97884 0.4125,0.25494 0.75,-0.57553 0.75,-1.84549 0,-1.26996 -0.32109,-2.11057 -0.71353,-1.86803 -0.39243,0.24254 -1.62993,-0.47543 -2.75,-1.5955 -1.12006,-1.12006 -2.05078,-1.69897 -2.06827,-1.28647 -0.0175,0.4125 -0.62611,-0.0327 -1.35249,-0.98939 C 125.69734,450.74233 119.60071,448 116.64619,448 c -1.11767,0 -2.03212,-0.47656 -2.03212,-1.05902 0,-0.58246 -0.38185,-0.82302 -0.84856,-0.53458 -0.4667,0.28844 -1.7139,-0.28176 -2.77156,-1.26712 -1.05766,-0.98536 -2.53845,-1.58642 -3.29064,-1.33569 -0.76418,0.25473 -1.08498,-10e-4 -0.72705,-0.5806 0.38872,-0.62896 -0.10611,-0.84121 -1.25857,-0.53983 -1.04453,0.27315 -2.83502,-0.004 -3.97887,-0.6164 -1.775254,-0.95009 -1.984944,-0.86603 -1.4323,0.57415 0.44329,1.15519 0.27073,1.45436 -0.547284,0.94881 -0.65709,-0.40611 -1.13027,-0.36743 -1.05152,0.086 0.42839,2.46604 -0.20924,4.37092 -1.24815,3.72884 -0.69794,-0.43135 -0.88374,-0.27542 -0.46983,0.39431 0.87216,1.41119 -2.17412,5.10837 -5.181865,6.28909 -1.612334,0.63294 -3.18681,0.44994 -5.233073,-0.60822 -3.218267,-1.66423 -6.443389,-6.88971 -5.347083,-8.66357 0.424356,-0.68662 0.245411,-0.84704 -0.459134,-0.41161 -1.075012,0.66439 -1.742253,-3.34913 -1.206109,-7.25486 0.10195,-0.7427 -0.242507,-1.08592 -0.765461,-0.76271 -0.522955,0.3232 -1.53264,-0.81698 -2.243745,-2.53374 -1.13116,-2.73086 -1.078195,-3.27839 0.423347,-4.37634 1.278964,-0.93521 1.596989,-2.23873 1.248145,-5.11591 -0.257465,-2.12352 -0.500196,-4.67501 -0.539402,-5.66997 -0.03921,-0.99496 -0.459946,-1.56881 -0.934979,-1.27522 -0.475033,0.29359 -1.136522,-1.76979 -1.469976,-4.58529 -0.652626,-5.5104 -3.795955,-11.0267 -7.374663,-12.94197 -1.222873,-0.65446 -1.987207,-1.57211 -1.698519,-2.03921 C 66.495908,397.38218 66.003992,397 65.114073,397 c -1.01141,0 -1.348342,-0.46864 -0.898692,-1.25 0.395639,-0.6875 0.363029,-0.92833 -0.07247,-0.53518 -1.099453,0.99254 -4.723374,-1.09104 -3.98252,-2.28977 0.331285,-0.53603 0.231389,-0.86785 -0.221992,-0.73737 -1.700433,0.48935 -5.467173,-2.37305 -4.937877,-3.75238 0.297864,-0.77622 0.220265,-1.30971 -0.172441,-1.18553 -1.19715,0.37854 -7.214008,-2.43312 -7.214008,-3.37109 0,-0.48327 -0.557222,-0.76618 -1.23827,-0.62868 -0.681049,0.1375 -2.624604,-2.44982 -4.319012,-5.7496 -1.694409,-3.29977 -3.842696,-6.14633 -4.773973,-6.32568 -0.931277,-0.17934 -1.436164,-0.74203 -1.121971,-1.2504 C 36.47504,369.41594 35.853694,369 34.780079,369 c -2.172208,0 -3.409297,-2.20242 -2.527632,-4.5 0.396699,-1.03378 -0.06383,-1.5 -1.481695,-1.5 -1.131514,0 -2.417159,-0.64304 -2.856989,-1.42897 -0.439829,-0.78593 -1.24969,-1.57343 -1.79969,-1.75 -0.55,-0.17657 -1.005739,-0.85177 -1.012754,-1.50045 -0.007,-0.64868 -0.416661,-1.54868 -0.910325,-2 -0.522922,-0.47807 -0.557457,-0.23433 -0.08274,0.58393 0.548161,0.94485 0.436994,1.17099 -0.339675,0.69098 -0.634977,-0.39244 -1.154506,-1.38852 -1.154506,-2.21352 0,-0.825 -0.45,-1.22189 -1,-0.88197 -0.55,0.33992 -1,0.15303 -1,-0.4153 0,-0.56834 -1.364713,-1.73906 -3.032696,-2.60161 -1.667983,-0.86255 -2.759535,-2.01025 -2.42567,-2.55045 0.333864,-0.54021 0.01108,-0.85854 -0.717304,-0.70742 -0.895818,0.18587 -1.264539,-0.69593 -1.139543,-2.72522 0.275133,-4.46676 -0.665482,-9.62997 -1.644163,-9.02511 -0.472077,0.29176 -2.0635135,-0.90181 -3.5365265,-2.65239 -2.782412,-3.30671 -2.863289,-4.7425 -0.656947,-11.66262 0.86942,-2.72691 0.812809,-3.24337 -0.308351,-2.81314 -1.549035,0.59442 -2.893516,-1.96378 -1.887535,-3.59149 0.361764,-0.58535 0.204027,-0.78385 -0.350528,-0.44112 -1.25235,0.774 -3.5730763,-4.06446 -2.6589323,-5.54357 0.388876,-0.62922 0.201214,-0.79157 -0.449854,-0.38919 -0.71747,0.44342 -1.13378103,-0.30618 -1.16379103,-2.09549 -0.0257,-1.53224 -0.257494,-7.70189 -0.5151,-13.71034 -0.290936,-6.78582 -0.07494,-11.39852 0.570156,-12.17581 C 1.2684812,280.71149 1.6374532,279.55249 1.5172272,278.82419 1.0265502,275.85177 5.2485035,267 7.1569115,267 c 0.866358,0 1.297081,-0.45 0.957162,-1 -0.536849,-0.86864 0.468871,-1.15983 3.2499995,-0.94098 1.167555,0.0919 2.004591,-4.48155 0.950238,-5.19193 -0.584943,-0.39412 -0.575417,-2.74537 0.02525,-6.23179 0.86915,-5.04478 0.782017,-5.65684 -0.880436,-6.18448 -2.4261785,-0.77004 -2.3498915,-3.94598 0.154948,-6.45082 1.1,-1.1 2,-2.47656 2,-3.05902 0,-0.58246 0.399012,-0.81241 0.886693,-0.51101 0.487681,0.30141 1.442782,-0.12204 2.122445,-0.94098 C 17.302874,235.67005 18.928862,235 20.236518,235 c 1.307655,0 2.377555,-0.38491 2.377555,-0.85535 0,-0.47044 1.9125,-0.80794 4.25,-0.75 2.856316,0.0708 4.835831,-0.48048 6.036475,-1.68112 0.98256,-0.98257 2.22006,-1.51851 2.75,-1.19099 0.529939,0.32752 1.015432,-0.21856 1.078875,-1.21352 0.06344,-0.99496 0.219901,-2.25902 0.347685,-2.80902 0.127785,-0.55 0.300878,-2.48906 0.384651,-4.30902 0.08377,-1.81996 0.570353,-3.05065 1.081289,-2.73488 0.534877,0.33058 0.798368,-1.31562 0.621106,-3.88044 -0.260095,-3.76334 0.09896,-4.81312 2.313871,-6.76512 l 2.62174,-2.31054 -1.992846,2.5 -1.992846,2.5 2.226419,-1.88365 c 1.22453,-1.036 2.010083,-2.23368 1.745674,-2.6615 -0.26441,-0.42783 1.321202,-2.71028 3.523581,-5.07212 2.202379,-2.36184 4.004326,-4.67821 4.004326,-5.14751 0,-0.46929 0.342597,-0.64152 0.761326,-0.38273 0.418729,0.25879 0.707094,-1.51465 0.64081,-3.94098 C 52.949929,189.98518 53.287646,188 53.7667,188 c 0.479055,0 0.654992,-1.6875 0.390971,-3.75 -0.26402,-2.0625 -0.730629,-5.77892 -1.036908,-8.25872 -0.441425,-3.574 -1.177785,-4.92154 -3.551914,-6.5 -1.647273,-1.0952 -3.660982,-1.85905 -4.474909,-1.69744 -1.323116,0.26271 -1.936062,-0.90461 -1.598288,-3.04384 0.06513,-0.4125 -0.358137,-0.75 -0.940596,-0.75 -0.582459,0 -0.737931,-0.51953 -0.345491,-1.15451 0.408742,-0.66136 0.277463,-0.88501 -0.307337,-0.52358 -0.561474,0.34701 -1.677461,-0.14596 -2.479971,-1.09549 C 37.886812,159.40968 37.216181,155 38.475333,155 c 1.063794,0 3.125662,-6.13849 3.214818,-9.571 0.0955,-3.67691 2.302469,-9.92396 3.513142,-9.94431 0.500929,-0.008 1.388337,-0.31998 1.972017,-0.69236 0.58368,-0.37237 2.817685,-0.5138 4.964455,-0.31427 2.14677,0.19952 4.819213,-0.14391 5.938763,-0.76316 1.11955,-0.61926 4.960545,-1.24848 8.535545,-1.39827 3.575,-0.14979 7.625,-0.46981 9,-0.71115 1.375,-0.24135 3.061204,-0.47631 3.747119,-0.52215 0.685916,-0.0458 3.080832,-1.73998 5.322036,-3.76477 3.381262,-3.05477 4.956339,-3.74257 9.252878,-4.0405 7.616604,-0.52817 7.677974,-0.53972 7.677974,-1.44473 0,-2.14417 8.14665,-7.483 9.82494,-6.43868 0.37128,0.23104 0.52019,-2.28587 0.3309,-5.59314 -0.1997,-3.4893 0.11509,-6.47244 0.75,-7.10735 0.60179,-0.60179 1.09415,-1.94723 1.09415,-2.989873 0,-4.529215 4.79941,-9.271985 8.85035,-8.745895 0.7427,0.0964 1.05364,-0.30472 0.69099,-0.89151 -0.5631,-0.91111 0.48634,-1.43744 2.50122,-1.25445 0.29841,0.0271 0.65029,-1.3645 0.78195,-3.09244 0.13167,-1.72795 0.85075,-4.36721 1.59795,-5.86502 0.77104,-1.54559 1.20155,-4.71603 0.99549,-7.33119 -0.19969,-2.53435 -0.0379,-4.40706 0.35949,-4.1616 0.39741,0.24546 0.73197,-1.53561 0.74346,-3.95794 0.0115,-2.42233 -0.326,-4.40424 -0.75,-4.40424 -0.42399,0 -0.7709,-2.2132 -0.7709,-4.91821 0,-6.03344 -0.72826,-8.1233 -2.58276,-7.41166 -0.81345,0.31215 -1.41724,-0.0619 -1.41724,-0.87793 0,-1.34691 -6.65213,-5.35623 -8.25,-4.97237 -0.4125,0.0991 -0.75,-0.26983 -0.75,-0.81983 0,-0.55 -0.9,-1 -2,-1 -1.09999,0 -1.99999,-0.47656 -1.99999,-1.05902 0,-0.58246 -0.36404,-0.83403 -0.80897,-0.55904 -1.03037,0.6368 -6.79273,-5.43246 -6.38824,-6.72849 0.16653,-0.53359 -0.23654,-1.30349 -0.89572,-1.71089 -0.74641,-0.4613 -0.89795,-1.43891 -0.40175,-2.59164 0.43822,-1.01801 0.90971,-2.38433 1.04775,-3.03628 0.26131,-1.23411 -9.205794,-12.33123 -10.382244,-12.16983 -2.057903,0.28232 -3.170833,-0.32548 -3.170833,-1.73168 0,-0.8727699 -1.35,-2.0964299 -3,-2.7192299 -1.65,-0.62281 -3,-1.5102801 -3,-1.9721561 0,-0.461879 -0.519529,-0.518693 -1.154508,-0.126254 C 82.770495,6.02136 82.575497,5.871435 82.975876,5.223607 83.344828,4.626632 83.20901,3.867692 82.674059,3.537074 82.139108,3.206456 81.954913,2.275362 82.264736,1.467975 82.74855,0.207175 89.234335,0 128.22106,0 c 24.96615,0 45.39364,0.3375 45.3944,0.75 7.6e-4,0.4125 15.63826,0.806934 34.75,0.87652 19.11174,0.06959 60.28611,0.252281 91.49861,0.40599 l 56.75,0.27947 v 7.4030321 c 0,4.6235199 -0.37115,7.1736399 -0.98855,6.7920699 -0.56686,-0.35034 -0.7345,0.0511 -0.39301,0.94098 0.32755,0.85357 0.15177,1.55194 -0.3906,1.55194 -0.57103,0 -0.93178,3.11662 -0.85699,7.40372 0.0736,4.2183 0.52495,7.15944 1.04909,6.83595 0.52491,-0.32396 0.60957,0.24104 0.19715,1.3158 -0.39754,1.03596 -0.42044,1.58121 -0.0509,1.21167 1.0625,-1.06249 3.127,1.55946 3.86166,4.90437 0.36944,1.68202 1.5493,4.00021 2.62192,5.15154 1.07263,1.15133 1.95023,2.78714 1.95023,3.63514 0,0.84799 0.48214,1.54181 1.07143,1.54181 1.958,0 4.15052,3.04324 3.62909,5.03721 -0.2827,1.08105 -0.12966,1.72801 0.34009,1.43769 0.46975,-0.29032 1.1609,2.18406 1.5359,5.49862 0.375,3.31456 1.04786,6.02648 1.49524,6.02648 0.44738,0 0.63778,0.91202 0.42311,2.02671 -0.21467,1.11469 -0.006,1.78927 0.46345,1.49906 1.10295,-0.68166 2.45221,9.00097 1.47468,10.58265 -0.45228,0.7318 -0.31932,0.93936 0.34051,0.53157 1.31052,-0.80995 2.64725,2.87021 1.63654,4.50557 -0.39957,0.64651 -0.2868,0.8963 0.25382,0.56219 0.53507,-0.3307 1.53373,0.94977 2.21923,2.84549 0.6855,1.89572 1.8721,3.44676 2.63689,3.44676 1.18102,0 1.39502,22.462628 1.42032,149.086378 0.0263,131.6858 -0.14653,149.26271 -1.48095,150.59713 -0.83091,0.83091 -2.15243,1.26451 -2.93672,0.96355 -0.90417,-0.34696 -1.99254,0.58853 -2.9743,2.55651 -2.04503,4.09937 -1.95332,5.52656 0.45167,7.0285 3.20662,2.00257 2.57121,6.37995 -1.5,10.33363 -1.925,1.86943 -3.5,3.82011 -3.5,4.33485 0,2.05074 1.28716,4.09945 2.5756,4.09945 0.7995,0 1.124,0.61926 0.78603,1.5 -0.35888,0.93522 0.007,1.5 0.97236,1.5 2.18841,0 2.93203,1.6144 3.14963,6.83786 0.10433,2.50429 0.716,4.72868 1.35926,4.9431 0.64327,0.21442 0.86796,0.8779 0.49931,1.47439 -0.41935,0.67852 -0.0783,0.85737 0.91101,0.47773 3.03053,-1.16292 3.67797,4.79408 1.17271,10.78999 -0.86574,2.07203 -1.1852,4.03948 -0.7099,4.37213 1.27237,0.89048 3.29838,8.2725 2.58652,9.42431 -0.3425,0.55418 -0.10363,0.6756 0.54296,0.27598 0.77657,-0.47995 1.15451,0.28787 1.15451,2.34549 0,1.68246 -0.43588,3.05902 -0.96862,3.05902 -0.53273,0 -0.68126,0.74882 -0.33006,1.66404 0.42645,1.11132 0.25375,1.42623 -0.51993,0.94807 -0.75689,-0.46779 -0.95204,-0.178 -0.56295,0.83595 0.32755,0.85357 0.16625,1.55194 -0.35844,1.55194 -0.52469,0 -1.99169,0.9 -3.26,2 -1.26831,1.1 -2.93872,2 -3.71203,2 -0.7733,0 -1.1594,0.39901 -0.858,0.88669 0.30141,0.48768 -0.0756,1.40423 -0.83775,2.03677 -0.76216,0.63254 -1.14934,2.05411 -0.8604,3.15904 0.32058,1.22587 -0.14352,2.49806 -1.1906,3.2637 -1.08983,0.79691 -1.77531,2.78676 -1.87859,5.45333 -0.1009,2.60487 -0.63711,4.19894 -1.41263,4.19953 -0.6875,5.1e-4 -1.1375,0.56344 -1,1.25094 0.1375,0.6875 -0.53266,1.18831 -1.48924,1.1129 -0.95658,-0.0754 -1.49252,0.2621 -1.19098,0.75 0.30154,0.48791 -0.42645,0.8871 -1.61775,0.8871 -1.57864,0 -1.99878,0.4358 -1.54931,1.60709 0.63339,1.65058 -0.73749,7.86386 -2.25256,10.20939 -0.46771,0.72407 -1.70533,1.44197 -2.75027,1.59533 -1.04494,0.15337 -1.95614,0.79845 -2.02489,1.43352 -0.0688,0.63507 -0.18125,1.60467 -0.25,2.15467 -0.0688,0.55 -0.6875,1.00961 -1.375,1.02135 -0.6875,0.0117 -2.51668,1.81174 -4.06485,4 -3.08642,4.36249 -4.68515,5.04838 -4.68515,2.01003 0,-1.26213 -0.49482,-1.77873 -1.37881,-1.43951 -0.75834,0.291 -1.36245,1.06438 -1.34246,1.71861 0.11424,3.73936 -0.42558,5.66015 -1.52873,5.43952 -1.13118,-0.22624 -1.24877,0.98076 -0.57098,5.86111 0.0849,0.61111 0.86681,1.06111 1.73765,1 0.92993,-0.0653 1.52601,0.61107 1.44444,1.63889 -0.0764,0.9625 0.24699,1.75 0.71862,1.75 0.47162,0 0.59947,0.67242 0.2841,1.49426 -0.31537,0.82184 -0.97625,1.24528 -1.46861,0.94098 -0.49237,-0.3043 -0.89522,-0.0502 -0.89522,0.56476 0,0.61492 -0.45345,0.83779 -1.00767,0.49526 -0.55422,-0.34253 -1.56672,-0.0209 -2.25,0.71479 -2.12225,2.28494 -1.7922,3.52214 0.80704,3.02526 4.61778,-0.88274 1.54239,4.71859 -3.4315,6.24993 -1.64052,0.50508 -1.99643,0.97178 -1.14324,1.49908 0.81697,0.50492 0.88516,0.9843 0.20022,1.40762 -0.69096,0.42703 -0.56138,1.55687 0.38708,3.375 1.86604,3.57707 1.84031,5.60139 -0.0619,4.87143 -1.0294,-0.39501 -1.5,0.0605 -1.5,1.45203 0,1.1152 -0.41891,1.76874 -0.9309,1.45231 -0.512,-0.31644 -1.18389,-0.166 -1.49309,0.3343 -0.3092,0.50031 0.5597,1.19122 1.9309,1.53537 4.03925,1.01379 3.15591,3.45712 -1.04517,2.89097 l -3.53826,-0.47682 1.36153,3.33673 c 0.74884,1.83521 1.72825,3.18581 2.17646,3.00133 0.82832,-0.34093 2.49531,1.7069 2.52322,3.09967 0.008,0.42035 -1.33469,0.52643 -2.98469,0.23574 -2.2554,-0.39734 -3,-0.14914 -3,1 0,1.12445 0.73932,1.39828 2.79668,1.03582 2.67687,-0.4716 2.77929,-0.34368 2.3906,2.98574 -0.22631,1.93847 -0.9701,3.47844 -1.68005,3.47844 -0.70068,0 -1.5336,0.99285 -1.85094,2.20633 -0.31733,1.21348 -0.84883,1.93446 -1.18111,1.60219 -0.7792,-0.7792 -6.3279,4.44906 -5.77499,5.44148 0.22981,0.4125 -0.0191,0.75 -0.55312,0.75 -0.53403,0 -0.84363,1.0125 -0.68801,2.25 0.9118,7.25062 2.01669,9.91706 5.64165,13.61508 3.96986,4.04986 4.89609,7.13802 2.64929,8.83306 -1.03135,0.77807 -16.05722,3.40561 -20.5,3.58478 -0.6875,0.0277 -1.25,0.47356 -1.25,0.99074 0,0.51717 -0.675,0.6813 -1.5,0.36471 -0.9422,-0.36155 -1.5,0.0103 -1.5,1 0,1.00796 -0.55488,1.36268 -1.54017,0.98459 -1.04879,-0.40246 -1.44759,-0.0709 -1.25,1.03927 0.15959,0.89665 -0.28639,1.83165 -0.99108,2.07778 -0.70469,0.24612 -1.15469,-0.1572 -1,-0.89626 0.35324,-1.68771 -7.45212,-1.64365 -8.01508,0.0453 -0.20597,0.6179 -0.80409,0.85795 -1.32916,0.53344 -0.57051,-0.35259 -0.69372,0.4497 -0.30618,1.99377 0.4309,1.71684 0.24068,2.58379 -0.56691,2.58379 -0.6944,0 -0.95674,0.67405 -0.61199,1.57244 0.63839,1.66363 -0.94664,5.44608 -2.78077,6.63592 -0.78052,0.50633 -0.76011,1.04019 0.0716,1.87185 0.63993,0.63993 0.95319,1.71157 0.69614,2.38143 -0.25705,0.66986 0.34061,1.85253 1.32814,2.62815 1.67591,1.31627 1.69559,1.27699 0.29551,-0.58979 -1.39115,-1.85487 -1.37301,-1.90041 0.25,-0.62756 0.9625,0.75485 1.75,1.9442 1.75,2.64302 0,0.69881 0.58974,1.49687 1.31053,1.77346 1.82538,0.70046 4.26372,9.01966 2.78784,9.51162 -0.61096,0.20366 -0.86871,0.76204 -0.57279,1.24085 0.29592,0.47882 -0.12831,2.46538 -0.94274,4.41459 -1.04241,2.49483 -2.162,3.59006 -3.78181,3.69954 -6.17279,0.41722 -10.43884,-1.22703 -9.12969,-3.51883 0.35712,-0.62518 0.27305,-0.79507 -0.18683,-0.37754 -0.45987,0.41753 -1.78075,-0.12828 -2.93529,-1.21291 -1.15453,-1.08463 -4.48646,-2.58301 -7.40428,-3.32973 -2.91783,-0.74673 -5.70268,-2.00092 -6.18857,-2.7871 -0.48588,-0.78617 -1.46233,-1.44986 -2.1699,-1.47486 -0.70756,-0.025 -1.17397,-0.5875 -1.03647,-1.25 0.1375,-0.6625 -0.0875,-1.15126 -0.5,-1.08613 -2.09664,0.33105 -3.29165,-0.242 -2.65451,-1.27293 0.44404,-0.71847 0.27411,-0.88293 -0.44993,-0.43545 -1.47881,0.91395 -5.35188,-0.26719 -4.64208,-1.41566 0.52067,-0.84248 -2.04327,-1.11364 -9.90233,-1.04728 -2.7571,0.0233 -4.31456,0.62643 -5.31842,2.05964 -0.78077,1.11469 -1.90831,1.72466 -2.50566,1.35548 -0.65085,-0.40224 -0.7984,-0.20575 -0.3682,0.49033 0.39605,0.64082 0.0575,1.41501 -0.75524,1.72687 -0.81022,0.31091 -1.74732,1.65773 -2.08243,2.99294 -0.33512,1.3352 -1.07729,2.42764 -1.64927,2.42764 -0.57198,0 -0.78107,0.41891 -0.46464,0.9309 0.59673,0.96553 -1.21068,2.52703 -2.95597,2.55379 -0.54928,0.008 -0.99928,0.78191 -1,1.71887 -7.3e-4,0.93696 -0.78487,2.28696 -1.74255,3 -1.64008,1.22112 -1.60711,1.57332 0.56739,6.06239 1.26974,2.62127 2.68794,4.42127 3.15155,4 0.46362,-0.42127 0.55281,-0.25777 0.1982,0.36334 -0.97044,1.69977 -4.47065,2.32296 -5.57479,0.99255 z"
     id="path7374"
     inkscape:connector-curvature="0" />
</svg>
